<svg xmlns="http://www.w3.org/2000/svg" viewBox="0 0 512 512" width="512" height="512">
  <!-- Transparent background -->
  <rect width="512" height="512" fill="none"/>
  <!-- White logo for dark mode (Raycast uses dark theme by default) -->
  <path fill="#ffffff" d="M358.352 41.749l154.054 87.573v1.858l-154.053 87.573.036-45.166-17.513-.641c-22.596-.597-34.367.043-48.379 2.347-22.699 3.733-43.476 12.306-67.128 28.843l-48.379 33.706c-6.059 4.16-10.564 7.168-14.513 9.707l-10.987 6.873-8.467 4.992 8.213 4.907 11.307 7.211c-10.147 6.693-24.961 16.981-57.623 39.836-22.699 15.873-44.289 24.893-67.128 28.843-24.6 4.053-42.173 4.544-81.387 2.944l.047-39.691-154.053 87.573v1.858l154.053 87.573.03-39.723-13.547.47c-29.569.896-45.613.043-66.979-3.456-36.139-5.973-69.54-19.76-104.176-43.936l-46.053-32c-6.059-4.16-11.627-8.064-16.107-11.307l-9.96-6.453c-11.947-7.467-32.427-20.48-44.8-26.027-11.627-5.227-25.173-13.547-25.173-13.547v-89.707s22.613 6.827 35.84 10.24c12.8 3.413 55.893 25.6 74.24 36.267l21.673 12.373c9.387 5.973 22.613 15.36 57.173 39.573 36.139 24.176 69.54 37.963 104.176 43.936 24.6 4.053 42.173 4.544 81.387 2.944l.427-40.64 154.054 87.573v1.858l-154.053 87.573.043-39.723c-29.569.896-45.613.043-66.979-3.456-36.139-5.973-69.54-19.76-104.176-43.936l-46.053-32c-5.973-4.053-11.52-7.893-16.107-11.307l-9.96-6.453c-16.64-10.667-38.613-24.747-55.253-35.413-22.699-15.873-44.289-24.893-67.128-28.843-24.6-4.053-42.173-4.544-81.387-2.944l.427-40.64L358.166 41.749z"/>
</svg>
